<?xml version="1.0" encoding="utf-8"?>
<!-- Generator: Adobe Illustrator 23.0.2, SVG Export Plug-In . SVG Version: 6.00 Build 0)  -->
<svg version="1.1" id="Layer_1" xmlns="http://www.w3.org/2000/svg" xmlns:xlink="http://www.w3.org/1999/xlink" x="0px" y="0px"
	 viewBox="0 0 188 69" style="enable-background:new 0 0 188 69;" xml:space="preserve">
<style type="text/css">
	.st0{fill:#FFFFFF;}
</style>
<g>
	<g>
		<path class="st0" d="M36,64.8c0.3,0.4,0.5,0.9,0.5,1.5c0,0.8-0.3,1.4-0.9,1.8c-0.6,0.4-1.5,0.6-2.6,0.6h-4.3v-9.3h4
			c1,0,1.8,0.2,2.4,0.6c0.6,0.4,0.9,1,0.9,1.8c0,0.5-0.1,0.9-0.4,1.3c-0.3,0.4-0.6,0.6-1,0.8C35.2,64.1,35.6,64.4,36,64.8z
			 M29.7,60.3v3.4h3c0.8,0,1.3-0.1,1.7-0.4S35,62.5,35,62c0-0.5-0.2-1-0.6-1.3s-1-0.4-1.7-0.4H29.7z M34.9,67.5
			c0.4-0.3,0.6-0.7,0.6-1.3c0-1.2-0.8-1.7-2.5-1.7h-3.3V68H33C33.8,68,34.4,67.8,34.9,67.5z"/>
	</g>
	<g>
		<path class="st0" d="M44.7,65.6v3.2h-1v-3.2L40,59.5h1l3.2,5.2l3.2-5.2h1L44.7,65.6z"/>
	</g>
	<g>
		<path class="st0" d="M73.5,59.5l-3.1,9.3h-1l-2.7-7.9l-2.7,7.9h-1l-3.1-9.3h1l2.7,8l2.8-8h0.9l2.7,8l2.7-8H73.5z"/>
		<path class="st0" d="M82.4,65.6v3.2h-1v-3.2l-3.7-6.1h1l3.2,5.2l3.2-5.2h1L82.4,65.6z"/>
	</g>
	<g>
		<path class="st0" d="M99.1,59.5v9.3h-0.8l-6-7.5v7.5h-1v-9.3h0.8l6,7.5v-7.5H99.1z"/>
	</g>
	<g>
		<path class="st0" d="M105.8,59.5h3.8c1,0,1.8,0.2,2.6,0.6c0.8,0.4,1.3,0.9,1.7,1.6c0.4,0.7,0.6,1.5,0.6,2.4s-0.2,1.7-0.6,2.4
			c-0.4,0.7-1,1.3-1.7,1.6c-0.8,0.4-1.6,0.6-2.6,0.6h-3.8V59.5z M109.5,67.9c0.8,0,1.5-0.2,2.1-0.5c0.6-0.3,1.1-0.8,1.4-1.3
			c0.3-0.6,0.5-1.2,0.5-2c0-0.7-0.2-1.4-0.5-2c-0.3-0.6-0.8-1-1.4-1.3c-0.6-0.3-1.3-0.5-2.1-0.5h-2.7v7.6H109.5z"/>
	</g>
	<g>
		<path class="st0" d="M128.2,59.5v9.3h-1v-4.3h-5.8v4.3h-1v-9.3h1v4.1h5.8v-4.1H128.2z"/>
	</g>
	<g>
		<path class="st0" d="M140.7,66.3h-5.2l-1.1,2.5h-1l4.2-9.3h1l4.2,9.3h-1L140.7,66.3z M140.4,65.5l-2.2-5l-2.2,5H140.4z"/>
	</g>
	<g>
		<path class="st0" d="M157.8,59.5v9.3h-0.9v-7.4l-3.6,6.2h-0.5l-3.6-6.2v7.4h-0.9v-9.3h0.8l4,6.9l4-6.9H157.8z"/>
	</g>
	<g>
		<path class="st0" d="M9,33.3h-9V11.6h8.3c6,0,10.9,4.9,10.9,10.9C19.3,28.2,14.7,33.3,9,33.3 M8.7,29.9c3.7,0,6.8-3.5,6.8-7.5
			c0-4.1-3.2-7.5-7.2-7.5H3.8v15H8.7z"/>
		<path class="st0" d="M43.6,28.5H33.3l-2.1,4.8h-4L36.3,14l-1.2-2.4h4.3l10.3,21.7h-4L43.6,28.5z M34.7,25.4h7.6l-3.8-8.5
			L34.7,25.4z"/>
		<polygon class="st0" points="77.5,30.1 64.1,30.1 77.9,11.6 59.2,11.6 59.2,14.8 71.2,14.8 57.4,33.3 77.5,33.3 		"/>
		<polygon class="st0" points="132.7,30.2 132.7,33.3 117.4,33.3 117.4,11.6 121.2,11.6 121.2,30.2 		"/>
		<polygon class="st0" points="158.9,30.1 158.9,33.3 142.5,33.3 142.5,11.6 158.2,11.6 158.2,14.8 146.2,14.8 146.2,21.2 
			156.3,21.2 156.3,24.3 146.2,24.3 146.2,30.1 		"/>
		<path class="st0" d="M178.8,27.3c-0.3,0-0.7,0-1,0h-4.5v6h-3.8V11.6h9.4c6.2,0,8.3,3.7,8.3,7.6c0,3.8-1.6,6.2-4.6,7.3l5.2,6.8
			h-4.6L178.8,27.3z M173.3,24.3h4.3c3.7,0,5.6-1.8,5.6-4.8c0-2.4-1.3-4.7-4.9-4.7h-5V24.3z"/>
		<rect x="59.2" y="0.1" class="st0" width="18.7" height="2.9"/>
		<rect x="87.4" y="41.9" class="st0" width="18.7" height="2.9"/>
		<polygon class="st0" points="106.2,30.1 92.7,30.1 106.5,11.6 87.8,11.6 87.8,14.8 99.8,14.8 86.1,33.3 106.2,33.3 		"/>
	</g>
</g>
</svg>
